<svg width="26" height="53" viewBox="0 0 26 53" fill="none" xmlns="http://www.w3.org/2000/svg">
<path d="M1.03275 34.0433C1.32125 34.1454 1.65583 34.2578 2.02282 34.3702L2.92635 34.6162L3.39834 34.7256L3.87033 34.8212C4.46633 34.9382 5.0706 35.0068 5.67738 35.0262C6.10226 35.0426 6.52152 35.1304 6.91805 35.2859C7.30698 35.4419 7.67417 35.6486 8.01037 35.9008C8.61838 36.3845 9.08463 37.0271 9.35892 37.7594C9.52185 38.1877 9.77497 38.5748 10.1006 38.8937C9.79046 38.1831 9.50726 37.5271 9.25103 36.7072C8.99481 35.8872 8.71162 35.0399 8.49585 34.1926C8.28008 33.3453 8.18569 32.826 8.06432 32.1973C7.9811 32.1039 7.89093 32.0171 7.7946 31.9377C7.69426 31.8539 7.58583 31.7807 7.47095 31.719C7.21787 31.5866 6.9299 31.5387 6.64834 31.5824L6.23029 31.5004C5.98755 31.5004 5.65041 31.3637 5.31328 31.2544L4.78735 31.0767C4.62424 31.0174 4.46635 30.9442 4.31535 30.8581C4.0629 30.7562 3.84992 30.5739 3.7085 30.3387C3.63983 30.1663 3.55398 30.0015 3.45229 29.8468L3.18257 29.3821C3.06735 29.2047 2.96806 29.0172 2.88589 28.8218C2.88589 28.7125 2.79149 28.6032 2.73755 28.4665C2.6836 28.3298 2.64315 28.2068 2.60269 28.0428C2.55378 27.8716 2.48592 27.7066 2.40041 27.5509C2.30947 27.3617 2.20584 27.179 2.09025 27.0042C1.98237 26.8129 1.84751 26.6216 1.72614 26.4302L1.30809 25.8563L1.10581 25.5829L0.903532 25.3096L0.52593 24.845C0.365192 24.6362 0.189399 24.4398 -2.12064e-06 24.2573L0.471996 24.6127L0.984441 24.9816L1.63174 25.4326C2.14204 25.7564 2.6687 26.0529 3.20955 26.3209L3.6141 26.5122L4.03216 26.6899C4.28711 26.7971 4.54832 26.8884 4.81431 26.9632C5.01016 27.0158 5.20001 27.089 5.38071 27.1819C5.5547 27.2736 5.7215 27.3787 5.87967 27.4962C6.18553 27.7355 6.45775 28.0159 6.68879 28.3298C7.13242 28.9352 7.41563 29.6456 7.51141 30.3934C7.54792 30.7166 7.63917 31.031 7.78112 31.3227C7.83591 31.441 7.89901 31.5552 7.96992 31.6644C7.67714 29.9316 7.55069 28.1741 7.59233 26.4166L7.59233 26.1023L7.59233 25.7743L7.59233 25.4599L7.59233 25.132C7.59828 25.0273 7.59828 24.9223 7.59233 24.8176L7.59233 24.7083L7.59233 24.64C7.49208 24.4218 7.35518 24.223 7.18776 24.0523C6.99026 23.8684 6.73976 23.7534 6.47303 23.7244L6.36514 23.7244L6.10892 23.5877L5.32677 23.1367C5.04525 22.9493 4.77917 22.739 4.53112 22.5081C4.34101 22.3409 4.20088 22.1231 4.12656 21.8794C4.07994 21.5249 4.01239 21.1735 3.92428 20.8271L3.92428 20.5401L3.92428 20.2258C3.91758 20.1029 3.91758 19.9797 3.92428 19.8568L3.92428 19.4332C3.94407 19.2652 3.94407 19.0955 3.92428 18.9275L3.92428 18.6406L3.92428 18.3536C3.92428 18.2579 3.62759 17.9026 3.62759 17.6293L3.5332 17.3286C3.5332 17.2193 3.5332 17.1236 3.4388 17.0143L3.23651 16.4403C3.1556 16.2627 3.10166 16.085 3.03423 15.9347C2.94879 15.7056 2.84971 15.482 2.73755 15.265C2.73755 15.265 2.84544 15.4427 3.04772 15.716L3.41182 16.1807L3.88382 16.7546C4.22934 17.155 4.59388 17.5381 4.97614 17.9026C5.39474 18.272 5.84618 18.6014 6.32469 18.8866C6.48429 18.9845 6.63343 19.099 6.76971 19.2282C6.90144 19.3561 7.019 19.4981 7.12033 19.6519C7.33069 19.9509 7.49023 20.2835 7.59233 20.6358C7.64699 20.8052 7.68759 20.9789 7.71369 21.1551C7.7334 21.3322 7.7334 21.511 7.71369 21.6881C7.72041 21.7791 7.72041 21.8704 7.71369 21.9614C7.70662 22.0478 7.70662 22.1347 7.71369 22.2211C7.72681 22.3894 7.72681 22.5584 7.71369 22.7267C7.70706 22.8086 7.70706 22.8909 7.71369 22.9727C7.70719 23.05 7.70719 23.1277 7.71369 23.205L7.71369 23.6423C7.74171 23.79 7.77773 23.936 7.82158 24.0797L7.82158 23.738C7.92946 22.8907 8.0778 22.0571 8.25311 21.2508C8.42842 20.4445 8.65767 19.6655 8.9139 18.9002C8.9139 18.7089 9.03527 18.5176 9.10269 18.3399L9.30498 17.7796L9.52075 17.2466C9.52682 17.1967 9.52682 17.1462 9.52075 17.0963C9.49682 16.8705 9.42801 16.652 9.31847 16.454C9.19099 16.2342 8.99715 16.0617 8.76556 15.962L8.49585 15.716C8.33403 15.552 8.11826 15.3334 7.91598 15.0874C7.71103 14.8434 7.52611 14.5829 7.36307 14.3084C7.23451 14.1047 7.16879 13.8668 7.17427 13.6251L7.17427 13.3654L7.17427 13.1195L7.17427 12.6001C7.17427 12.4088 7.17427 12.2175 7.26867 11.9988C7.36307 11.7802 7.26868 11.7802 7.34959 11.6572C7.4305 11.5342 7.34958 11.4112 7.45747 11.2745C7.62151 10.5998 7.6941 9.90555 7.67324 9.21095L7.67324 8.18599C7.66524 8.03117 7.64682 7.87716 7.61813 7.72503C7.64352 7.79986 7.68533 7.89567 7.75415 8.00834C7.92946 8.29532 8.03735 8.69164 8.25311 9.12896C8.361 9.34761 8.46888 9.56627 8.60374 9.79859C8.7256 10.034 8.86067 10.2622 9.0083 10.4819C9.14315 10.7006 9.29149 10.9192 9.43983 11.1242C9.58711 11.3194 9.74467 11.5065 9.91183 11.6845C10.1446 11.9392 10.3195 12.2424 10.4243 12.5728C10.473 12.7337 10.5091 12.8982 10.5322 13.0648L10.5322 13.5841L10.5322 14.0897C10.5372 14.1762 10.5372 14.2629 10.5322 14.3494L10.5322 14.5954C10.4426 14.9147 10.3158 15.2221 10.1546 15.511C10.1546 15.6477 10.0332 15.798 9.97925 15.9347C9.92531 16.0713 9.97925 16.0713 9.97925 16.1397L9.97925 16.2763C9.93078 16.3588 9.89015 16.4457 9.85789 16.536L9.97925 16.8366C9.96657 16.6729 9.96657 16.5084 9.97925 16.3447L9.97925 16.2763L10.2085 15.757C10.2894 15.593 10.3838 15.429 10.4512 15.2787C10.5187 15.1284 10.5322 15.1147 10.5861 15.0327L10.7075 14.7867L10.8423 14.5544L10.8423 14.4314C10.8464 14.3951 10.8464 14.3584 10.8423 14.3221L11.112 13.8711C11.193 13.7071 11.2873 13.5704 11.3683 13.4201L11.5031 13.2014C11.5031 13.1331 11.5975 13.0648 11.638 12.9828C12.1204 12.3056 12.6524 11.6661 13.2293 11.0695C13.2951 10.9027 13.3404 10.7283 13.3641 10.5502C13.4038 10.3426 13.4038 10.1292 13.3641 9.92159C13.2965 9.69339 13.1596 9.49256 12.973 9.34761C12.9046 9.25106 12.8416 9.15068 12.7842 9.04695C12.6763 8.86929 12.528 8.62331 12.3932 8.34999C12.1137 7.91758 11.9855 7.4027 12.0291 6.88772C12.2592 6.1871 12.534 5.50235 12.8517 4.8378C12.9812 4.5769 13.0808 4.30176 13.1483 4.01783C13.2307 3.7032 13.2937 3.38372 13.3371 3.0612C13.3982 2.60777 13.3982 2.14803 13.3371 1.69459L13.445 2.13191C13.5259 2.39156 13.6338 2.76055 13.7687 3.1842C14.084 4.0334 14.491 4.84463 14.9824 5.6031C15.1583 5.86783 15.265 6.17347 15.2925 6.4914C15.3177 6.80535 15.281 7.12123 15.1846 7.42069C14.9846 8.03437 14.6583 8.598 14.2272 9.07429C14.1289 9.18595 14.0388 9.30471 13.9575 9.42961C13.8884 9.54234 13.8297 9.66128 13.7822 9.78492C13.6859 9.99228 13.6222 10.2136 13.5934 10.4409L13.5934 10.6186L14.0788 10.0309C14.2407 9.82592 15.8724 7.981 17.0456 6.65538C17.2779 6.26776 17.4036 5.82423 17.4098 5.37078C17.3323 4.64828 17.498 3.92046 17.8798 3.3053C18.2616 2.69013 18.8373 2.22369 19.5135 1.98158C21.1379 1.50252 22.7033 0.837718 24.1795 -1.59156e-07C23.2234 0.757284 22.4681 1.74346 21.9813 2.86988C21.6577 3.89484 21.3071 4.40048 21.0643 5.05645C20.8216 5.71243 18.3672 6.42306 18.3672 6.42306C17.9855 6.42181 17.6146 6.55191 17.3154 6.79205C16.8838 7.43436 15.6162 9.33394 15.2656 9.74393L14.6317 10.5366L14.0384 11.3019L14.2676 11.2199L14.5239 11.0695L14.8071 10.8919L15.0902 10.6596C15.1712 10.5639 15.2656 10.4682 15.3465 10.3589L15.4678 10.1949C15.5139 10.1414 15.5634 10.0912 15.6162 10.0446C15.7129 9.93749 15.8165 9.83705 15.9264 9.74393L16.2905 9.47061C16.4135 9.38886 16.5446 9.32016 16.6815 9.26562C16.9517 9.1375 17.2463 9.07109 17.5446 9.07109C17.8429 9.07109 18.1375 9.1375 18.4077 9.26562C19.2279 9.60563 20.0763 9.87089 20.9429 10.0583L21.9678 10.2906L22.3724 10.3726C21.92 10.3412 21.4656 10.3781 21.0239 10.4819C20.7419 10.5357 20.4628 10.6041 20.1878 10.6869C19.9505 10.7617 19.7239 10.8673 19.5135 11.0012C19.2217 11.1824 18.9201 11.3466 18.61 11.4932C18.3402 11.6298 18.111 11.7255 17.8817 11.8622C17.6967 11.9161 17.5004 11.9161 17.3154 11.8622C17.0591 11.8622 16.7759 11.7802 16.5062 11.7255C15.9533 11.5889 15.4544 11.4385 15.4544 11.4385C15.2711 11.3134 15.055 11.2467 14.834 11.2472C14.634 11.2554 14.4372 11.3017 14.2541 11.3839C14.1078 11.453 13.9679 11.5353 13.8361 11.6299L13.6608 11.7665C13.2697 12.2858 12.8921 12.8461 12.5145 13.4474L12.3932 13.6524C12.3404 13.7201 12.2952 13.7934 12.2583 13.8711C12.1774 14.0078 12.083 14.1444 12.0021 14.2947C11.9212 14.4451 11.8402 14.5954 11.7458 14.7457L11.7458 14.855C11.7393 14.8912 11.7393 14.9282 11.7458 14.9644L11.6245 15.1967L11.5031 15.429C11.4547 15.5019 11.414 15.5798 11.3817 15.6614L11.139 16.1397L10.9098 16.6316C10.8682 16.711 10.8322 16.7932 10.8019 16.8776L10.6805 17.1236C10.6528 17.2135 10.6167 17.3004 10.5726 17.3833C10.5693 17.3932 10.5658 17.403 10.5623 17.4129L10.4378 17.4926C10.307 17.6008 10.1852 17.7196 10.0736 17.8479L9.87136 18.3809L9.69606 18.9275C9.45332 19.6655 9.23755 20.4172 9.06224 21.1961C8.88693 21.9751 8.75208 22.7814 8.64419 23.6014L8.56328 24.2163L8.56328 24.3393C8.68772 24.1581 8.79602 23.966 8.88693 23.7654L8.96784 23.574L8.96784 23.3827C9.01355 23.2451 9.04518 23.1032 9.06224 22.959C9.08072 22.8062 9.11231 22.6553 9.15664 22.5081C9.19796 22.3506 9.24748 22.1955 9.30498 22.0434C9.37329 21.8934 9.44982 21.7474 9.53423 21.6061C9.61637 21.4654 9.71117 21.3328 9.81742 21.2098C9.91963 21.086 10.0324 20.9717 10.1546 20.8681L10.3568 20.7315L10.5726 20.6221C10.8824 20.4681 11.226 20.3975 11.5705 20.4171L12.2988 20.4171L13.0809 20.4171L13.8496 20.4171L14.5778 20.4171L16.1826 20.2942C16.0026 20.3186 15.826 20.3644 15.6566 20.4308C15.404 20.5271 15.1564 20.6366 14.9149 20.7588L14.5373 20.9775L14.1867 21.2235L13.89 21.4831C13.8392 21.518 13.7976 21.5649 13.7687 21.6198L13.7012 21.6198C13.6032 21.7848 13.4903 21.9403 13.3641 22.0844C13.2719 22.2128 13.1729 22.336 13.0674 22.4534C12.8841 22.6665 12.713 22.8901 12.555 23.123C12.5064 23.198 12.4356 23.2555 12.3527 23.287L12.0156 23.451C11.7459 23.5467 11.4222 23.6287 11.112 23.7107L10.2759 23.902L9.91183 23.9703C9.6568 23.9435 9.39951 23.9909 9.17012 24.107C8.97392 24.2195 8.80378 24.3733 8.67116 24.558L8.49585 24.8313C8.50311 24.9359 8.50311 25.041 8.49585 25.1456C8.50258 25.2503 8.50258 25.3553 8.49585 25.4599L8.49585 25.7743C8.48881 25.8789 8.48881 25.9839 8.49585 26.0886C8.45482 27.7871 8.58131 29.4856 8.87344 31.1587C8.86704 31.2816 8.86704 31.4048 8.87344 31.5277L8.87344 31.3774C8.91594 31.249 8.9431 31.116 8.95435 30.9811L8.95435 30.7761L8.95435 30.3387L8.95435 30.0928C8.94046 29.9291 8.94046 29.7645 8.95435 29.6008L8.95435 29.0815C8.97598 28.9101 9.01207 28.7409 9.06224 28.5758C9.10039 28.4051 9.15929 28.2399 9.23756 28.0838C9.30472 27.9278 9.39078 27.7809 9.49377 27.6465C9.59287 27.5074 9.71092 27.3831 9.8444 27.2775C10.1183 27.0384 10.4478 26.8737 10.8019 26.7992C11.3256 26.6848 11.8432 26.5434 12.3527 26.3756L13.1349 26.1159L13.8631 25.8836L14.4969 25.6786L14.7801 25.5829L15.0093 25.5009L15.466 25.3555C15.3923 25.3795 15.3207 25.4098 15.2521 25.4463L15.1172 25.5283C15.0731 25.568 15.023 25.6003 14.9689 25.6239L14.6452 25.8563L14.4834 25.9793L14.3081 26.1296L14.1463 26.2799L13.9844 26.4439C13.8766 26.5532 13.7822 26.6762 13.6878 26.7856C13.6053 26.8952 13.5288 27.0092 13.4585 27.1272C13.4585 27.1272 13.3911 27.2502 13.3641 27.3049C13.3605 27.3549 13.3605 27.4052 13.3641 27.4552C13.3641 27.5645 13.2967 27.6602 13.2562 27.7559C13.2158 27.8515 13.2562 27.9335 13.1483 28.0155C13.0405 28.0975 13.1483 28.1795 13.0539 28.2615L13.0674 28.8355L12.9595 29.0541L12.8786 29.2591L12.7168 29.6691C12.6176 29.8736 12.4571 30.041 12.2583 30.1474C11.9922 30.3405 11.7128 30.514 11.4222 30.6667L10.6266 31.0904L10.2624 31.268C9.99268 31.2958 9.74045 31.4164 9.54772 31.6097C9.37668 31.7716 9.24709 31.9733 9.17012 32.1973C9.16603 32.2565 9.16603 32.3158 9.17012 32.375C9.27801 32.9216 9.39937 33.482 9.53423 34.0286C9.75 34.8622 10.0062 35.6822 10.2759 36.4748C10.5456 37.2675 10.8693 38.0874 11.1929 38.8527L11.1929 38.4291C11.2106 38.2793 11.2106 38.1279 11.1929 37.9781C11.1539 37.8155 11.1044 37.6557 11.0446 37.4998C10.7674 36.8168 10.6834 36.0692 10.8019 35.3405C10.8388 35.164 10.8884 34.9905 10.9502 34.8212C11.027 34.6589 11.1172 34.5035 11.2199 34.3566C11.4396 34.0423 11.7374 33.7925 12.083 33.6323C12.5912 33.3753 13.0863 33.0925 13.5664 32.785L14.9149 31.8694L16.4118 30.8854C16.2476 31.0036 16.1021 31.1464 15.9803 31.309L15.7106 31.637L15.4409 32.0333L15.1981 32.4707C15.1223 32.6123 15.0547 32.7583 14.9958 32.908C14.9365 33.0501 14.8869 33.1962 14.8475 33.3453C14.8072 33.4689 14.7844 33.5978 14.7801 33.7279L14.7801 34.0833L14.7801 34.3839C14.7801 34.5889 14.7801 34.7666 14.6992 34.9306C14.6344 35.2462 14.5894 35.5658 14.5643 35.8872C14.5065 36.1174 14.3848 36.3261 14.2137 36.4885L13.8631 36.8575L13.472 37.2265L12.7303 37.8414L12.501 38.0328L12.4066 38.0328C12.1376 38.1305 11.9062 38.3124 11.7458 38.5521C11.6785 38.6589 11.6242 38.7736 11.584 38.8937C11.5443 39.0088 11.5172 39.128 11.5031 39.249C11.7593 39.8367 12.0425 40.4243 12.3392 40.9846C13.0665 42.3659 13.9008 43.6865 14.834 44.9341L14.9284 45.0571C14.9125 44.9498 14.8854 44.8444 14.8475 44.7428C14.7935 44.5933 14.7304 44.4472 14.6587 44.3055C14.579 44.1448 14.4889 43.9896 14.389 43.8409C13.9351 43.21 13.6684 42.4608 13.6203 41.6816C13.6112 41.3024 13.6801 40.9254 13.8226 40.5747C13.9845 40.204 14.2405 39.8833 14.5643 39.6454C14.7801 39.4677 15.0093 39.29 15.2251 39.0851C15.4409 38.8801 15.6701 38.6751 15.8994 38.4701L16.5467 37.8278C16.7624 37.6273 16.9647 37.4223 17.1535 37.2128L18.5021 35.8462L18.3402 36.0512L18.1515 36.3792C18.1515 36.5022 18.0166 36.6388 17.9627 36.7891C17.8893 36.9394 17.8262 37.0947 17.7739 37.2538C17.7739 37.4041 17.666 37.5818 17.612 37.7458C17.5581 37.9098 17.5311 38.0874 17.5041 38.2514L17.5041 38.4837C17.4976 38.561 17.4976 38.6388 17.5041 38.7161C17.4838 38.852 17.4838 38.9902 17.5041 39.126C17.51 39.2444 17.51 39.363 17.5041 39.4814L17.5041 39.8094C17.5109 39.9049 17.5109 40.0008 17.5041 40.0963C17.5105 40.1873 17.5105 40.2787 17.5041 40.3697C17.5109 40.4561 17.5109 40.5429 17.5041 40.6293L17.5041 40.8753L17.5041 41.1213L17.5041 41.3673C17.5334 41.4653 17.5334 41.5699 17.5041 41.6679C17.4631 41.803 17.4041 41.9317 17.3288 42.0506C17.2479 42.2009 17.1535 42.3512 17.0591 42.5016L16.7355 42.9662L16.1421 43.7589C15.9803 43.9775 15.8724 44.1005 15.8724 44.1005C15.6162 44.2634 15.4215 44.5089 15.3195 44.7975C15.2463 45.0266 15.2188 45.2681 15.2386 45.5081C15.9497 46.3945 16.725 47.2259 17.5581 47.9953C18.3531 48.7206 19.2158 49.3659 20.1338 49.9223L20.0124 49.7719C19.7851 49.5049 19.527 49.2663 19.2438 49.0613C18.9228 48.8313 18.6366 48.555 18.3942 48.2413C18.1486 47.9252 17.9571 47.5695 17.8278 47.1891C17.8216 47.0935 17.8216 46.9976 17.8278 46.9021C17.8214 46.8065 17.8214 46.7106 17.8278 46.6151C17.821 46.515 17.821 46.4145 17.8278 46.3144C17.8211 46.2189 17.8211 46.123 17.8278 46.0274C17.8551 45.8277 17.9143 45.6339 18.0031 45.4535C18.0875 45.255 18.2012 45.0707 18.3402 44.9068C18.5156 44.6745 18.6909 44.4422 18.8662 44.1825C19.0415 43.9229 19.2303 43.6632 19.4056 43.3899L19.918 42.6109C20.0799 42.3513 20.2552 42.1053 20.4035 41.8729C20.5519 41.6406 20.7002 41.4083 20.8351 41.217L21.1722 40.6977L21.4824 40.233C21.3697 40.4203 21.2834 40.6227 21.2261 40.8343C21.2261 40.9573 21.1452 41.1076 21.1048 41.2716L21.1048 41.381C21.0985 41.4217 21.0985 41.4632 21.1048 41.5039L21.1048 41.7499C21.0916 41.9228 21.0916 42.0964 21.1048 42.2693C21.0915 42.433 21.0915 42.5975 21.1048 42.7612C21.0908 42.9158 21.0908 43.0713 21.1048 43.2259L21.1048 43.4309L21.1048 43.5949L21.1722 43.7589L21.1722 43.9092C21.1722 43.9638 21.1722 44.1005 21.2666 44.1962C21.361 44.2918 21.3745 44.5378 21.4149 44.7018C21.409 44.7791 21.409 44.8568 21.4149 44.9341L21.4149 45.1528L21.4149 45.2485C21.43 45.321 21.4574 45.3904 21.4958 45.4535C21.5022 45.4942 21.5022 45.5357 21.4958 45.5764L21.4958 45.7404C21.4783 45.8879 21.4513 46.0339 21.4149 46.1778C21.3475 46.4921 21.2261 46.8611 21.1183 47.23C21.0104 47.599 20.889 47.9544 20.8081 48.214L20.6732 48.6513C20.4896 48.899 20.3945 49.2026 20.4035 49.5123C20.3961 49.5804 20.3961 49.6492 20.4035 49.7173C20.3974 49.7855 20.3974 49.8541 20.4035 49.9223C20.4199 49.9881 20.4425 50.0521 20.471 50.1136C20.7946 50.2776 21.1048 50.4279 21.4014 50.5509L21.6981 50.6739L21.9813 50.7696L22.2645 50.8652L22.5342 50.9472C23.0644 51.0904 23.5113 51.2108 24.1525 51.2342C24.3209 51.2404 24.4155 51.2369 24.584 51.2342C25.1382 51.2255 26 51.1386 26 51.1386C26 51.1386 24.7005 52.1404 24.0851 52.0952C23.4697 52.0499 22.86 51.9447 22.2645 51.7809L21.9678 51.6852L21.6712 51.5895L21.3475 51.4802L21.0239 51.3435C20.6687 51.1947 20.3221 51.0259 19.9855 50.8379C19.7424 50.8603 19.5026 50.9107 19.2707 50.9882C18.9647 51.0937 18.7063 51.3071 18.5425 51.5895L18.1514 51.8629C17.8497 52.0792 17.5343 52.2755 17.2075 52.4505L16.6276 52.7238C16.4387 52.8043 16.245 52.8727 16.0477 52.9288C15.7308 53.0237 15.3936 53.0237 15.0768 52.9288L14.7261 52.8058L14.416 52.7238L13.8091 52.6008L13.472 52.5188L13.2967 52.5188L13.1079 52.5188L12.6898 52.3412L12.2044 52.0815C12.0066 51.967 11.799 51.8709 11.584 51.7945L10.8154 51.5759L9.95228 51.3982L9.06224 51.2616C7.889 51.0839 6.78319 50.9609 6.36514 50.9336L6.55394 50.9336L7.06639 50.9336L7.83507 50.9336L8.77904 50.7969C9.47973 50.6896 10.1733 50.539 10.8558 50.3459C11.5039 50.1815 12.1359 49.9573 12.7438 49.6763C13.1716 49.4777 13.626 49.3442 14.0923 49.28C14.3349 49.2664 14.578 49.2664 14.8205 49.28L15.1712 49.28L15.7645 49.3346L15.9398 49.3346L16.1151 49.3346L16.4658 49.3346L16.7894 49.4166L17.1131 49.5123L17.4232 49.6353L17.7199 49.7719C17.9072 49.8681 18.0875 49.9777 18.2593 50.0999L18.5156 50.2639L18.7718 50.4006C18.9389 50.4741 19.11 50.538 19.2842 50.5919L19.4056 50.5919L19.5135 50.5919C18.5471 50.0152 17.6431 49.3373 16.8164 48.5693C15.9159 47.7254 15.0818 46.8115 14.3216 45.8361C14.2269 45.792 14.1273 45.7599 14.0249 45.7404C13.8817 45.7204 13.7365 45.7204 13.5934 45.7404C13.2798 45.7335 12.9723 45.8294 12.7168 46.0138L12.5954 46.0138L12.2718 46.1094C11.934 46.1961 11.5919 46.2645 11.2469 46.3144C10.8553 46.3854 10.4579 46.4174 10.0602 46.4101L9.80394 46.4101C9.5916 46.3969 9.38666 46.3261 9.21058 46.2051L8.95435 46.0274L8.69813 45.8634L8.4554 45.7268L8.21266 45.6038C7.75757 45.3506 7.34365 45.028 6.98547 44.6472C6.66386 44.3484 6.3003 44.0997 5.90664 43.9092L5.20539 43.5675L4.4637 43.2532L3.73548 42.9799L3.07468 42.7339C2.79265 42.6254 2.50444 42.5341 2.21161 42.4606L2.38693 42.4606L2.85892 42.4606L3.57365 42.5562L4.45021 42.5562L5.44813 42.5562L6.47303 42.5562L6.972 42.5562C7.13805 42.5698 7.3049 42.5698 7.47095 42.5562C7.78112 42.5562 8.09128 42.5562 8.37448 42.4332C8.59429 42.4131 8.81546 42.4131 9.03527 42.4332C9.25982 42.4192 9.485 42.4192 9.70954 42.4332C10.1735 42.4938 10.6271 42.6179 11.0581 42.8022C11.8346 43.1104 12.5083 43.6366 13 44.3192C13.106 44.4779 13.2232 44.6286 13.3506 44.7702L13.7417 45.1118L13.9575 45.2485C12.9999 43.9512 12.1433 42.5804 11.3952 41.1486C11.0581 40.5063 10.7479 39.8504 10.4512 39.1807C10.2415 39.0336 10.0091 38.9228 9.76349 38.8527C9.62547 38.8251 9.48345 38.8251 9.34543 38.8527C9.19282 38.8588 9.04234 38.8912 8.90042 38.9484C8.41534 38.9765 7.92907 38.9765 7.44399 38.9484C7.06723 38.9235 6.69298 38.8687 6.32469 38.7844C6.04863 38.7366 5.79411 38.6028 5.59647 38.4017L5.39419 38.1694C5.33815 38.099 5.27486 38.0349 5.20539 37.9781L4.80083 37.6091C4.64722 37.4639 4.50307 37.3086 4.3693 37.1445C4.19114 36.9243 4.02889 36.6914 3.88382 36.4475C3.78524 36.2913 3.67236 36.1449 3.54668 36.0102C3.39834 35.8598 3.24999 35.7095 3.07468 35.5592L2.79149 35.3269L2.5083 35.0945L1.91494 34.6572L1.32158 34.2336L1.03275 34.0433Z" fill="#B6B6B6"/>
<path d="M10.8906 17.3286L11.0311 17.1783C11.1105 17.0838 11.1827 16.9833 11.2469 16.8776C11.3271 16.7672 11.395 16.648 11.4492 16.5223C11.5058 16.3848 11.5735 16.2523 11.6514 16.126C11.7324 16.003 11.8133 15.8663 11.9077 15.7433L12.2178 15.4017L12.3257 15.1694C12.383 15.1162 12.4464 15.0703 12.5145 15.0327C12.7654 14.856 13.0504 14.7349 13.3506 14.6774C13.6648 14.5964 13.9939 14.5964 14.3081 14.6774C14.752 14.8018 15.2022 14.9022 15.6566 14.978L17.0052 15.1967L17.5985 15.2787L18.084 15.2787L18.3714 15.2787C17.9633 15.2855 17.558 15.3498 17.167 15.47L16.9647 15.5384L16.7624 15.5384L16.3714 15.6887C16.1496 15.7894 15.9412 15.9179 15.751 16.0713C15.6146 16.1945 15.4705 16.3087 15.3195 16.413L15.1307 16.5633L14.9554 16.6863C14.7293 16.8359 14.5131 17.0003 14.3081 17.1783C14.1318 17.2808 13.9314 17.3328 13.7282 17.3286L12.8651 17.3286L11.7054 17.3286C11.4772 17.2553 11.2323 17.2553 11.0042 17.3286L10.8906 17.3286Z" fill="#B6B6B6"/>
</svg>
